<?xml version="1.0" encoding="UTF-8"?><svg id="Livello_2" xmlns="http://www.w3.org/2000/svg" viewBox="0 0 350 136.89"><g id="Livello_1-2"><g><path d="m53.14,72.62l-2.66,14.65H0v-.85c1.94-1.09,2.78-2.91,2.78-7.14V10.65c0-4.36-.85-6.05-2.78-7.14v-.97h15.01v.97c-1.82,1.09-2.66,2.78-2.66,7.14v75.77h11.01c13.43,0,23.36-6.9,29.05-14.28l.73.48Z"/><path d="m114.37,87.27h-12.23v-16.95c-3.15,10.65-9.8,17.67-21.42,17.67-9.93,0-19.61-4.72-21.18-13.43-2.06-12.35,5.33-19.61,14.65-23.48-3.15-7.02.61-22.03,16.82-22.03,10.05,0,20.7,5.33,20.7,20.21v30.02c0,4.24.85,6.05,2.66,7.14v.85Zm-12.23-19.12v-18.64c-.6-.24-3.51-1.09-7.26-1.09-13.19,0-31.1,6.54-25.9,27.84,1.57,6.54,8.59,10.53,14.65,10.17,10.53-.61,16.1-9.56,18.52-18.28Zm-26.75-17.55c6.54-2.42,13.8-3.27,19.49-3.27,2.78,0,5.21.48,7.26,1.09v-.85c0-9.2-3.63-17.31-12.22-17.31-10.89,0-18.15,10.53-14.52,20.33Z"/><path d="m207.07,25.78l-18.15,51.08,3.99,10.41h-9.56s-20.09-52.05-23.72-61.49c-3.63-9.32-8.11-16.82-12.59-22.27v-.97h18.52v.97c-3.03,3.15-2.06,7.38,1.33,16.22l21.54,55.92,17.67-49.87c3.87-10.89,4.48-16.82-.73-22.27v-.97h14.4v.97c-5.2,5.45-8.71,11.01-12.71,22.27Z"/><path d="m240.84,86.42v.85h-15.01v-.85c1.82-1.09,2.66-2.91,2.66-7.14v-40.91c0-4.24-.36-5.45-2.66-5.81v-.85l11.38-2.66h.85v50.23c0,4.24.85,6.05,2.78,7.14Zm-13.56-72.86c0-3.15,2.54-5.69,5.69-5.69s5.69,2.54,5.69,5.69-2.54,5.69-5.69,5.69-5.69-2.54-5.69-5.69Z"/><path d="m264.19,86.42v.85h-14.89v-.85c1.82-1.09,2.66-2.91,2.66-7.14V9.32c0-4.24-.36-5.45-2.66-5.81v-.97l11.38-2.54h.85v79.28c0,4.24.85,6.05,2.66,7.14Z"/><path d="m287.55,86.42v.85h-14.89v-.85c1.82-1.09,2.66-2.91,2.66-7.14V9.32c0-4.24-.36-5.45-2.66-5.81v-.97l11.38-2.54h.85v79.28c0,4.24.85,6.05,2.66,7.14Z"/><path d="m350,87.27h-12.23v-16.95c-3.15,10.65-9.8,17.67-21.42,17.67-9.93,0-19.61-4.72-21.18-13.43-2.06-12.35,5.33-19.61,14.65-23.48-3.15-7.02.61-22.03,16.82-22.03,10.05,0,20.7,5.33,20.7,20.21v30.02c0,4.24.85,6.05,2.66,7.14v.85Zm-12.23-19.12v-18.64c-.6-.24-3.51-1.09-7.26-1.09-13.19,0-31.1,6.54-25.9,27.84,1.57,6.54,8.59,10.53,14.65,10.17,10.53-.61,16.1-9.56,18.52-18.28Zm-26.75-17.55c6.54-2.42,13.8-3.27,19.49-3.27,2.78,0,5.21.48,7.26,1.09v-.85c0-9.2-3.63-17.31-12.22-17.31-10.89,0-18.15,10.53-14.52,20.33Z"/><path d="m27.15,128.92c-2.11,4.38-5.86,7.97-12.77,7.97-7.7,0-14.38-6.25-14.38-13.99s6.99-13.99,14.73-13.99c4.22,0,6.76,1.09,10.08,3.28l-1.17,4.45h-.27c-2.85-4.53-7.5-7.89-12.62-6.8-6.68,1.45-9.1,9.34-6.99,16.25,2.11,6.88,7.73,10.47,14.61,9.42,3.52-.51,6.52-2.81,8.52-6.72l.27.12Z"/><path d="m46.93,136.66h-3.95v-5.47c-1.02,3.44-3.16,5.7-6.91,5.7-3.2,0-6.33-1.52-6.84-4.34-.66-3.98,1.72-6.33,4.73-7.58-1.02-2.27.2-7.11,5.43-7.11,3.24,0,6.68,1.72,6.68,6.52v9.69c0,1.37.27,1.95.86,2.3v.27Zm-3.95-6.17v-6.02c-.2-.08-1.13-.35-2.34-.35-4.26,0-10.04,2.11-8.36,8.99.51,2.11,2.77,3.4,4.73,3.28,3.4-.2,5.2-3.09,5.98-5.9Zm-8.63-5.66c2.11-.78,4.45-1.05,6.29-1.05.9,0,1.68.16,2.34.35v-.27c0-2.97-1.17-5.59-3.95-5.59-3.52,0-5.86,3.4-4.69,6.56Z"/><path d="m79.32,136.38v.27h-4.81v-.27c.59-.35.78-1.02.66-2.3-.16-1.29-.7-7.89-.9-9.92-.31-2.93-1.45-6.25-4.49-5.59-3.59.78-4.06,6.84-4.1,10.94v4.57c0,1.37.27,1.95.86,2.3v.27h-4.81v-.27c.59-.35.86-.94.86-2.3v-9.92c0-2.97-1.37-6.17-4.41-5.59-4.38.82-4.57,8.99-4.57,12.31v3.2c0,1.37.31,1.95.9,2.3v.27h-4.84v-.27c.58-.35.9-.94.9-2.3v-13.21c0-1.37-.12-1.76-.9-1.88v-.27l3.67-.86h.27v8.67c.43-4.14,1.6-8.67,6.29-8.67,3.01,0,5.59,2.58,5.74,6.88l.04.43c.47-3.79,1.91-7.31,5.86-7.31,3.09,0,5.27,2.3,5.74,6.88.43,3.79.78,7.89.94,9.34.16,1.41.51,1.95,1.09,2.3Z"/><path d="m100.3,130.44c-.23,2.77-2.7,6.45-8.24,6.45s-10.59-2.66-10.74-9.1c-.2-6.76,5.94-9.69,10.23-9.92,3.32-.16,7.89,1.45,8.44,6.17h-3.63c2.23.59,4.26,2.85,3.95,6.41Zm-5.55-6.41h-10.12c-.51,2.07-.39,4.38.27,6.25,1.45,4.1,4.38,5.9,8.36,5.74,3.36-.16,6.29-2.46,6.68-5.51.47-4.06-2.23-6.49-5.2-6.49Zm-10.04-.31h12.46c-.51-3.4-3.56-6.13-7.38-5.39-2.66.51-4.37,2.73-5.08,5.39Z"/><path d="m117.34,120.17l-2.38,3.36-.27-.16c-.08-2.23-1.17-5.12-3.28-4.81-3.83.59-4.34,10.67-4.34,13.99v1.52c0,1.37.27,1.95.86,2.3v.27h-4.84v-.27c.63-.35.9-.94.9-2.3v-13.21c0-1.37-.12-1.76-.9-1.88v-.27l3.67-.86h.31v10.47c.39-4.73,1.48-10.47,5.62-10.47,2.11,0,3.32.74,4.65,2.3Z"/><path d="m137.15,130.44c-.23,2.77-2.7,6.45-8.24,6.45s-10.59-2.66-10.74-9.1c-.2-6.76,5.94-9.69,10.23-9.92,3.32-.16,7.89,1.45,8.44,6.17h-3.63c2.23.59,4.26,2.85,3.95,6.41Zm-5.55-6.41h-10.12c-.51,2.07-.39,4.38.27,6.25,1.45,4.1,4.38,5.9,8.36,5.74,3.36-.16,6.29-2.46,6.68-5.51.47-4.06-2.23-6.49-5.2-6.49Zm-10.04-.31h12.46c-.51-3.4-3.56-6.13-7.38-5.39-2.66.51-4.37,2.73-5.08,5.39Z"/><path d="m167.95,130.44c-.23,2.77-2.7,6.45-8.24,6.45s-10.59-2.66-10.74-9.1c-.2-6.76,5.94-9.69,10.23-9.92,3.32-.16,7.89,1.45,8.44,6.17h-3.63c2.23.59,4.26,2.85,3.95,6.41Zm-5.55-6.41h-10.12c-.51,2.07-.39,4.38.27,6.25,1.45,4.1,4.38,5.9,8.36,5.74,3.36-.16,6.29-2.46,6.68-5.51.47-4.06-2.23-6.49-5.2-6.49Zm-10.04-.31h12.46c-.51-3.4-3.56-6.13-7.38-5.39-2.66.51-4.37,2.73-5.08,5.39Z"/><path d="m200.58,136.38v.27h-6.02v-.27c1.02-1.02.2-2.42-1.33-5.12l-4.18-7.31c-.59.04-1.17.08-1.76.08h-3.63v10.04c0,1.37.27,1.95.86,2.3v.27h-4.81v-.27c.59-.35.86-.94.86-2.3v-22.15c0-1.41-.27-1.95-.86-2.3v-.31h7.58c6.06,0,11.52,2.27,11.52,7.38,0,3.67-2.93,5.9-6.84,6.8l3.52,6.17c2.3,4.02,3.56,5.35,5.08,6.72Zm-4.84-19.69c0-3.05-1.02-7.07-8.44-7.07h-3.63v14.1h3.63c7.38,0,8.44-4.02,8.44-7.03Z"/><path d="m206.6,136.38v.27h-4.84v-.27c.59-.35.86-.94.86-2.3v-13.21c0-1.37-.12-1.76-.86-1.88v-.27l3.67-.86h.27v16.21c0,1.37.27,1.95.9,2.3Zm-4.38-23.52c0-1.02.82-1.84,1.84-1.84s1.84.82,1.84,1.84-.82,1.84-1.84,1.84-1.84-.82-1.84-1.84Z"/><path d="m223.13,120.37l-.78,3.59h-.2c-1.21-3.32-3.71-5.74-5.94-5.74-2.66,0-4.14,1.49-4.34,3.09-.55,5.23,12.62,3.83,12.19,10.2-.24,3.09-3.13,5.39-7.5,5.39-3.16,0-5.51-1.05-7.62-2.62l.82-3.91h.2c1.33,2.73,4.26,5.98,7.74,5.98,2.81,0,4.92-1.45,5.16-3.13.74-5.12-12.89-2.85-11.95-10.51.31-2.54,1.72-4.84,5.98-4.84,2.03,0,4.69,1.29,6.25,2.5Z"/><path d="m240.48,129.82c-.74,3.67-2.38,7.07-6.49,7.07-3.48,0-5.62-2.27-5.62-6.88v-11.84h-2.3v-.31c3.32,0,3.59-3.48,3.59-5.35h3.09c0,3.01-2.97,5.23-5.31,5.35h8.64v.31h-4.61v12.42c0,3.4.94,6.02,4.26,5.59,2.58-.35,3.87-3.44,4.57-6.45l.2.08Z"/><path d="m260.44,126.54c0,6.25-5.35,10.35-10.59,10.35s-9.77-3.2-9.77-8.67c0-6.45,5.35-10.35,10.59-10.35s9.77,3.28,9.77,8.67Zm-3.28-1.25c-1.37-4.69-5.04-8.01-9.49-6.72-4.45,1.29-5.66,6.17-4.3,10.9,1.37,4.69,5.04,8.05,9.49,6.72,4.45-1.29,5.66-6.17,4.3-10.9Z"/><path d="m277.44,120.17l-2.38,3.36-.27-.16c-.08-2.23-1.17-5.12-3.28-4.81-3.83.59-4.34,10.67-4.34,13.99v1.52c0,1.37.27,1.95.86,2.3v.27h-4.84v-.27c.62-.35.9-.94.9-2.3v-13.21c0-1.37-.12-1.76-.9-1.88v-.27l3.67-.86h.31v10.47c.39-4.73,1.49-10.47,5.63-10.47,2.11,0,3.32.74,4.65,2.3Z"/><path d="m293.7,136.66h-3.95v-5.47c-1.02,3.44-3.16,5.7-6.91,5.7-3.2,0-6.33-1.52-6.84-4.34-.66-3.98,1.72-6.33,4.73-7.58-1.02-2.27.2-7.11,5.43-7.11,3.24,0,6.68,1.72,6.68,6.52v9.69c0,1.37.27,1.95.86,2.3v.27Zm-3.95-6.17v-6.02c-.2-.08-1.13-.35-2.34-.35-4.26,0-10.04,2.11-8.36,8.99.51,2.11,2.77,3.4,4.73,3.28,3.4-.2,5.2-3.09,5.98-5.9Zm-8.63-5.66c2.11-.78,4.45-1.05,6.29-1.05.9,0,1.68.16,2.34.35v-.27c0-2.97-1.17-5.59-3.95-5.59-3.52,0-5.86,3.4-4.69,6.56Z"/><path d="m315.74,136.38v.27h-4.84v-.27c.63-.35.78-1.02.66-2.3-.12-1.29-.7-7.89-.9-9.92-.27-2.93-1.72-6.25-5.08-5.59-4.37.86-5.2,9.03-5.2,12.31v3.2c0,1.37.27,1.95.9,2.3v.27h-4.84v-.27c.58-.35.86-.94.86-2.3v-13.21c0-1.37-.12-1.76-.86-1.88v-.27l3.67-.86h.27v9.69c.51-4.38,1.84-9.69,6.92-9.69,3.2,0,5.94,2.19,6.41,6.88.39,3.79.78,7.89.94,9.34.16,1.41.51,1.95,1.09,2.3Z"/><path d="m331.33,129.82c-.74,3.67-2.38,7.07-6.49,7.07-3.48,0-5.62-2.27-5.62-6.88v-11.84h-2.3v-.31c3.32,0,3.59-3.48,3.59-5.35h3.09c0,3.01-2.97,5.23-5.31,5.35h8.64v.31h-4.61v12.42c0,3.4.94,6.02,4.26,5.59,2.58-.35,3.87-3.44,4.57-6.45l.2.08Z"/><path d="m349.97,130.44c-.23,2.77-2.7,6.45-8.24,6.45s-10.59-2.66-10.74-9.1c-.2-6.76,5.94-9.69,10.23-9.92,3.32-.16,7.89,1.45,8.44,6.17h-3.63c2.23.59,4.26,2.85,3.95,6.41Zm-5.55-6.41h-10.12c-.51,2.07-.39,4.38.27,6.25,1.45,4.1,4.38,5.9,8.36,5.74,3.36-.16,6.29-2.46,6.68-5.51.47-4.06-2.23-6.49-5.2-6.49Zm-10.04-.31h12.46c-.51-3.4-3.56-6.13-7.38-5.39-2.66.51-4.37,2.73-5.08,5.39Z"/></g></g></svg>