<?xml version="1.0" encoding="utf-8"?>
<!-- Generator: Adobe Illustrator 27.2.0, SVG Export Plug-In . SVG Version: 6.00 Build 0)  -->
<svg version="1.1" id="Livello_2_00000156576071186960742390000007769966454752288936_"
	 xmlns="http://www.w3.org/2000/svg" xmlns:xlink="http://www.w3.org/1999/xlink" x="0px" y="0px" viewBox="0 0 350 88"
	 style="enable-background:new 0 0 350 88;" xml:space="preserve">
<style type="text/css">
	.st0{fill:#FFFFFF;}
</style>
<g id="Livello_1-2">
	<g>
		<path class="st0" d="M53.1,72.6l-2.7,14.7H0v-0.8c1.9-1.1,2.8-2.9,2.8-7.1V10.6c0-4.4-0.9-6.1-2.8-7.1v-1h15v1
			c-1.8,1.1-2.7,2.8-2.7,7.1v75.8h11c13.4,0,23.4-6.9,29-14.3L53.1,72.6z"/>
		<path class="st0" d="M114.4,87.3h-12.2v-17C99,81,92.3,88,80.7,88c-9.9,0-19.6-4.7-21.2-13.4c-2.1-12.3,5.3-19.6,14.7-23.5
			c-3.2-7,0.6-22,16.8-22c10.1,0,20.7,5.3,20.7,20.2v30c0,4.2,0.8,6.1,2.7,7.1L114.4,87.3L114.4,87.3z M102.1,68.1V49.5
			c-0.6-0.2-3.5-1.1-7.3-1.1C81.7,48.4,63.8,55,69,76.3c1.6,6.5,8.6,10.5,14.7,10.2C94.2,85.8,99.7,76.9,102.1,68.1L102.1,68.1z
			 M75.4,50.6c6.5-2.4,13.8-3.3,19.5-3.3c2.8,0,5.2,0.5,7.3,1.1v-0.8c0-9.2-3.6-17.3-12.2-17.3C79,30.3,71.8,40.8,75.4,50.6
			L75.4,50.6z"/>
		<path class="st0" d="M207.1,25.8l-18.1,51.1l4,10.4h-9.6c0,0-20.1-52-23.7-61.5C156,16.5,151.5,9,147,3.5v-1h18.5v1
			c-3,3.2-2.1,7.4,1.3,16.2l21.5,55.9l17.7-49.9c3.9-10.9,4.5-16.8-0.7-22.3v-1h14.4v1C214.6,9,211.1,14.5,207.1,25.8L207.1,25.8z"
			/>
		<path class="st0" d="M240.8,86.4v0.8h-15v-0.8c1.8-1.1,2.7-2.9,2.7-7.1V38.4c0-4.2-0.4-5.5-2.7-5.8v-0.9l11.4-2.7h0.9v50.2
			C238.1,83.5,238.9,85.3,240.8,86.4L240.8,86.4z M227.3,13.6c0-3.1,2.5-5.7,5.7-5.7s5.7,2.5,5.7,5.7s-2.5,5.7-5.7,5.7
			S227.3,16.7,227.3,13.6z"/>
		<path class="st0" d="M264.2,86.4v0.8h-14.9v-0.8c1.8-1.1,2.7-2.9,2.7-7.1v-70c0-4.2-0.4-5.4-2.7-5.8v-1L260.7,0h0.9v79.3
			C261.5,83.5,262.4,85.3,264.2,86.4z"/>
		<path class="st0" d="M287.5,86.4v0.8h-14.9v-0.8c1.8-1.1,2.7-2.9,2.7-7.1v-70c0-4.2-0.4-5.4-2.7-5.8v-1L284,0h0.9v79.3
			C284.9,83.5,285.7,85.3,287.5,86.4z"/>
		<path class="st0" d="M350,87.3h-12.2v-17C334.6,81,328,88,316.3,88c-9.9,0-19.6-4.7-21.2-13.4c-2.1-12.3,5.3-19.6,14.6-23.5
			c-3.1-7,0.6-22,16.8-22c10,0,20.7,5.3,20.7,20.2v30c0,4.2,0.9,6.1,2.7,7.1V87.3L350,87.3z M337.8,68.1V49.5
			c-0.6-0.2-3.5-1.1-7.3-1.1c-13.2,0-31.1,6.5-25.9,27.8c1.6,6.5,8.6,10.5,14.6,10.2C329.8,85.8,335.4,76.9,337.8,68.1L337.8,68.1z
			 M311,50.6c6.5-2.4,13.8-3.3,19.5-3.3c2.8,0,5.2,0.5,7.3,1.1v-0.8c0-9.2-3.6-17.3-12.2-17.3C314.7,30.3,307.4,40.8,311,50.6
			L311,50.6z"/>
	</g>
</g>
</svg>
