<svg width="1280" height="832" viewBox="0 0 1280 832" fill="none" xmlns="http://www.w3.org/2000/svg">
<path d="M283.785 239.853C269.865 265.851 252.217 289.091 235.262 312.867C205.062 353.155 161.418 412.436 131.733 454.133C107.066 488.547 78.928 525.838 56.9174 561.72C49.3823 574.163 42.561 587.341 34.7086 599.567C26.995 611.971 19.5192 624.315 13.9472 637.295C12.7376 640.073 12.2419 643.05 12.8169 644.578C13.5506 646.543 15.6525 647.297 17.7941 647.912C20.5702 648.627 23.8817 648.766 27.3915 648.726C38.0796 648.726 48.6485 647.694 59.0391 645.431C72.6618 642.077 86.7209 636.243 100.403 632.452C120.827 625.962 143.076 618.957 163.797 613.598C178.669 609.847 193.898 605.66 209.464 605.084C222.314 604.866 223.365 623.501 210.416 624.593C209.643 624.652 208.83 624.553 208.076 624.434C201.592 623.402 195.128 624.315 188.584 625.288C160.625 629.951 131.496 637.275 103.853 644.28C89.1797 647.575 75.9932 652.675 61.0816 655.613C49.997 657.657 38.6347 658.471 27.4311 658.371C15.8508 658.907 0.840095 654.859 3.25927 639.875C3.6162 637.553 4.31011 635.469 5.12311 633.504C13.8877 612.745 26.6181 594.982 37.1277 575.553C47.2406 556.004 58.8408 536.912 70.8376 518.594C116.921 448.378 170.341 369.429 218.328 300.562C235.322 276.767 252.117 252.812 272.581 231.557C278.074 225.98 287.632 232.351 283.785 239.773V239.853Z" fill="#EFE6DC"/>
<path d="M332.927 553.224C308.124 571.191 241.634 623.223 241.713 651.896C241.555 650.941 239.947 649.369 239.094 649.15L239.669 649.289C244.65 649.986 249.094 648.215 254.234 646.643C280.068 638.326 304.414 625.532 328.264 611.683C352.729 598.391 386.222 568.227 386.262 538.38C386.083 534.6 385.508 530.183 382.829 528.034C382.79 527.994 382.115 528.034 381.103 528.551C380.607 528.79 380.012 529.108 379.397 529.486C370.627 534.799 363.206 542.36 358.245 551.413C347.788 570.654 351.082 595.327 364.376 612.34C374.813 626.805 393.107 632.337 408.207 621.393C428.823 606.032 447.574 588.224 466.84 571.152C477.257 561.999 486.9 551.95 498.766 544.449C502.06 542.34 506.445 543.335 508.528 546.638C510.155 549.225 509.897 552.448 508.131 554.736C499.441 565.978 488.369 574.494 477.912 583.767C462.019 597.476 445.927 611.006 429.16 623.721C420.033 630.546 410.549 637.968 398.961 639.838C361.301 645.668 336.994 601.296 342.252 568.207C344.534 553.244 351.281 539.037 361.638 527.994C365.686 523.776 370.19 519.916 375.369 517.05C383.802 512.335 393.107 516.533 396.699 525.427C404.021 544.509 394.933 565.302 383.762 580.683C370.845 598.232 353.9 612.658 334.812 623.104C310.605 637.072 285.366 650.284 258.162 658.979C249.63 661.964 229.451 667.237 228.975 652.553C228.241 637.391 238.023 624.756 246.654 613.454C269.016 585.737 296.715 563.531 324.752 541.962C332.331 536.689 340.268 547.653 332.907 553.244L332.927 553.224Z" fill="#EFE6DC"/>
<path d="M716.871 132.996C716.516 157.402 710.689 181.032 707.212 205.06C692.694 301.272 684.536 398.54 684.16 495.886C683.192 559.53 687.815 624.169 690.896 687.793C691.113 693.646 691.192 700.653 691.291 706.486C691.291 707.7 691.37 708.775 691.528 709.492C691.686 710.249 691.903 710.527 691.903 710.487L682.955 709.193C684.239 708.696 687.163 702.007 688.071 699.777C710.906 658.012 732.397 615.549 752.229 572.211C774.076 524.653 794.856 476.556 810.422 426.947C826.441 377.756 831.676 325.738 838.194 273.462C843.567 234.782 844.002 196.839 832.999 159.691C829.681 147.269 825.75 134.907 821.681 122.485C820.041 117.508 822.728 112.133 827.666 110.481C832.644 108.828 837.997 111.575 839.617 116.592C847.676 142.034 855.715 168.172 858.659 194.947C861.543 222.28 859.251 249.513 855.656 275.771C850.461 314.849 845.918 354.724 836.851 393.403C821.088 457.983 793.73 518.74 765.918 578.721C745.73 621.8 724.002 664.183 700.773 705.69C698.165 711.224 696.15 717.196 690.442 720.959C687.538 722.93 683.666 722.312 681.494 719.665C676.16 713.414 677.879 704.595 677.523 697.309C676.694 655.503 673.474 611.11 672.111 569.384C670.294 520.392 670.61 471.361 672.032 422.369C674.699 336.588 679.479 250.549 694.017 165.863C695.874 153.58 698.481 141.456 703.4 129.99C704.94 126.387 709.089 124.754 712.644 126.307C715.37 127.501 716.95 130.209 716.891 133.036L716.871 132.996Z" fill="#EFE6DC"/>
<path d="M861.893 463.022C836.757 489.074 818.834 521.763 809.643 556.737C808.424 562.182 807.085 568.263 805.966 573.708L804.348 585.174C802.47 600.455 801.071 615.875 802.689 631.256C803.548 636.721 799.632 641.868 794.077 642.424C787.684 643.199 782.189 637.178 783.527 630.938C784.926 623.923 785.645 616.889 786.245 609.815C787.084 604.111 788.443 594.474 789.382 588.85C790.141 585.213 792.299 574.88 793.118 571.085C794.157 567.11 796.695 557.353 797.654 553.538C800.351 544.596 803.728 533.626 807.005 524.803C814.098 505.846 822.311 487.007 833.12 469.818C837.696 462.664 842.372 455.709 848.226 449.43C857.537 440.388 871.025 453.682 861.913 463.042L861.893 463.022Z" fill="#EFE6DC"/>
<path d="M876.162 400.576C875.593 402.051 875.063 405.195 874.946 406.592C874.632 410.492 875.75 413.287 878.398 414.276C882.008 415.615 886.638 412.18 888.776 406.592C890.895 401.003 889.698 395.395 886.108 394.037C882.498 392.698 878.3 394.988 876.181 400.576H876.162Z" fill="#EFE6DC"/>
<path d="M1065.05 239.293C1034.01 300.88 999.646 367.926 970.16 429.752C952.349 466.431 930.831 521.786 915.271 560.132C910.809 571.108 906.226 581.984 902.242 592.98C896.982 607.846 891.005 623.625 892.419 638.63C892.32 637.975 891.104 637.141 890.547 637.161C890.347 637.161 890.367 637.161 890.427 637.141C890.626 637.082 890.885 637.002 891.423 636.705C906.306 628.944 917.961 617.194 929.676 605.067C946.192 588.157 961.972 570.731 979.086 554.257C985.64 548.203 994.964 557.274 989.067 563.962C973.009 581.349 955.656 597.823 937.526 613.304C925.134 624.002 912.044 635.156 897.321 643.056C895.747 643.79 894.153 644.922 892.141 645.279C888.216 646.251 884.291 643.552 884.131 639.404C882.498 622.355 888.355 605.94 892.957 589.884C903.895 555.865 915.769 522.52 928.859 489.275C954.62 422.904 986.896 359.134 1018.41 295.363L1050.43 231.909C1055.41 222.581 1069.78 229.25 1065.05 239.313V239.293Z" fill="#EFE6DC"/>
<path d="M1240.85 132.934C1218.14 175.346 1187.25 233.292 1163.55 274.095C1136.97 320.421 1110.35 366.726 1087.77 415.038C1066.76 461.324 1042.77 514.781 1022.98 561.782C1012.54 586.415 1002.03 610.928 992.111 635.8C983.491 657.294 975.43 678.827 970.941 701.434C970.362 704.374 970.203 706.996 970.602 708.665C971.5 712.399 969.185 716.154 965.434 717.048C952.405 718.597 956.954 700.441 958.79 693.687C967.509 659.141 982.514 626.88 996.162 594.162C1021.5 533.852 1049.04 469.35 1075.14 409.317C1097.24 360.111 1123.3 312.991 1148.66 265.891C1171.47 224.75 1200.5 165.612 1221.43 123.001C1228.12 110.367 1247.37 119.465 1240.83 132.934H1240.85Z" fill="#EFE6DC"/>
<path d="M1118.09 522.129C1106.46 537.141 1049.49 623.283 1065.19 637.024C1067.86 638.792 1072.84 638.017 1076.08 636.826C1092.61 631.742 1107.29 621.019 1121.53 611.011C1129.42 605.61 1136.71 599.513 1144.34 593.794C1149.44 590.022 1154.64 586.249 1159.06 581.681C1167.38 572.626 1175.09 561.427 1180.51 550.585C1186.09 539.464 1184.31 528.463 1178.36 517.919C1175.55 512.796 1171.94 508.308 1167.74 506.064C1160.13 501.835 1146.75 504.615 1140.79 511.863C1134.1 521.017 1130.32 532.812 1130.26 544.071C1130.36 555.648 1134.48 567.225 1141.29 577.432C1147.75 587.301 1155.69 598.044 1166.51 602.691C1167.64 603.167 1169.2 603.544 1170.37 603.822C1181.09 605.729 1192.16 605.133 1202.74 602.611C1214.83 599.692 1226.26 594.072 1235.76 586.288C1240.7 582.158 1245.26 577.194 1250.26 573.083C1255.38 568.695 1260.57 564.703 1265.32 560.474C1272.23 554.516 1281.39 564.505 1274.64 570.839C1268.96 574.95 1263.08 578.643 1257.71 582.515C1252.23 586.249 1247.67 590.776 1242.29 594.688C1221.32 610.038 1194.53 616.631 1168.88 612.699C1167.14 612.381 1164.89 611.845 1163.28 611.249C1149.5 606.007 1140.32 594.946 1131.87 583.846C1118.89 566.907 1113.45 543.456 1120.32 522.883C1123.73 512.18 1129.34 500.802 1139.62 495.301C1150.1 489.305 1164.18 487.914 1174.55 494.904C1186.76 503.125 1193.81 519.031 1194.71 533.547C1195.01 544.985 1190.03 554.914 1184.01 563.73C1174.83 577.809 1163.92 590.677 1152.58 603.147C1143.06 612.679 1131.53 619.748 1120.02 626.619C1107.15 634.145 1093.27 641.194 1078.45 645.086C1072.58 646.635 1066.72 647.588 1060.81 644.034C1044.04 633.112 1063.06 597.925 1068.81 584.045C1080.17 560.116 1093.01 537.201 1106.46 514.444C1111.7 506.302 1123.55 514.107 1118.09 522.109V522.129Z" fill="#EFE6DC"/>
</svg>
